<?xml version="1.0" standalone="no"?>
<!DOCTYPE svg PUBLIC "-//W3C//DTD SVG 20010904//EN"
 "http://www.w3.org/TR/2001/REC-SVG-20010904/DTD/svg10.dtd">
<svg version="1.0" xmlns="http://www.w3.org/2000/svg"
 width="512.000000pt" height="512.000000pt" viewBox="0 0 512.000000 512.000000"
 preserveAspectRatio="xMidYMid meet">
<metadata>
Created by potrace 1.11, written by Peter Selinger 2001-2013
</metadata>
<g transform="translate(0.000000,512.000000) scale(0.100000,-0.100000)"
fill="#000000" stroke="none">
<path d="M2300 5110 c-133 -18 -160 -22 -255 -41 -88 -18 -152 -34 -274 -71
-121 -36 -371 -146 -485 -215 -220 -131 -372 -249 -536 -413 -289 -289 -492
-617 -621 -1004 -94 -279 -128 -514 -124 -841 3 -293 38 -513 124 -772 174
-530 538 -1008 1001 -1317 109 -73 158 -102 254 -152 192 -99 453 -193 641
-230 11 -2 31 -6 45 -9 14 -2 41 -7 60 -10 19 -3 46 -7 60 -10 90 -16 162 -20
375 -20 295 0 455 22 723 99 735 212 1359 779 1646 1493 60 151 121 354 141
473 3 19 10 59 15 88 28 157 34 575 11 737 -103 716 -463 1318 -1043 1744 -54
39 -100 71 -104 71 -3 0 -24 13 -47 29 -112 76 -342 185 -518 245 -164 56
-291 85 -524 121 -61 10 -502 13 -565 5z m570 -154 c19 -3 49 -8 65 -11 107
-17 153 -27 255 -54 63 -16 147 -41 185 -55 82 -29 268 -108 287 -122 7 -6 31
-19 53 -29 22 -11 70 -39 107 -62 38 -24 73 -43 78 -43 6 0 10 -4 10 -8 0 -4
15 -16 33 -27 17 -10 41 -27 51 -37 11 -10 23 -18 27 -18 4 0 15 -8 25 -17 9
-10 30 -28 46 -39 16 -12 72 -61 124 -110 53 -49 102 -92 108 -96 6 -4 7 -8 3
-8 -4 0 5 -13 20 -28 15 -15 50 -54 78 -87 27 -33 52 -62 55 -65 3 -3 10 -12
15 -21 6 -8 47 -70 92 -138 44 -67 100 -159 124 -204 23 -45 45 -84 48 -87 3
-3 6 -9 6 -15 0 -5 14 -44 31 -85 37 -89 47 -113 49 -120 4 -19 29 -87 33 -95
3 -5 7 -16 8 -25 1 -8 12 -53 24 -100 12 -47 24 -94 25 -105 2 -11 9 -47 14
-80 10 -57 16 -102 26 -205 5 -55 6 -327 0 -392 -35 -421 -165 -796 -400
-1150 -47 -69 -90 -132 -97 -140 -7 -7 -35 -40 -62 -73 -109 -133 -286 -296
-437 -403 -188 -133 -321 -206 -519 -285 -106 -43 -321 -107 -401 -121 -244
-42 -265 -44 -509 -42 -135 2 -256 5 -270 9 -14 3 -47 8 -75 12 -27 3 -70 11
-96 16 -25 6 -57 11 -70 13 -13 2 -31 6 -39 9 -8 3 -58 17 -110 32 -52 14
-104 30 -115 34 -11 5 -47 19 -80 32 -33 13 -98 41 -145 63 -47 22 -89 40 -95
40 -5 1 -18 8 -27 16 -9 8 -43 29 -75 45 -32 17 -62 36 -66 43 -4 6 -13 12
-18 12 -9 0 -94 54 -109 70 -3 3 -32 25 -65 50 -75 56 -118 93 -227 201 -48
47 -90 83 -94 80 -3 -3 -4 -1 -2 5 2 6 -16 33 -40 59 -24 26 -72 88 -108 137
-250 349 -389 699 -449 1128 -23 162 -22 427 1 605 4 35 27 164 38 220 70 344
262 735 505 1025 57 69 291 303 291 292 0 -4 4 -2 8 4 4 6 48 41 97 78 50 37
98 74 108 82 9 7 17 10 17 6 0 -4 6 0 13 8 13 16 30 27 117 74 30 16 57 33 58
38 2 4 12 8 22 8 10 0 20 4 22 8 6 15 344 152 378 153 3 1 11 5 18 11 6 6 12
8 12 5 0 -4 17 0 39 7 32 12 135 35 216 50 61 11 95 16 140 22 28 3 52 8 54
10 6 5 503 -3 541 -10z"/>
<path d="M2457 4834 c-1 -1 -40 -5 -87 -8 -47 -3 -96 -8 -109 -11 -12 -2 -42
-6 -65 -9 -57 -7 -204 -41 -306 -72 -116 -35 -330 -124 -330 -137 0 -6 -3 -8
-6 -4 -7 7 -157 -72 -162 -85 -2 -4 -8 -8 -14 -8 -8 0 -127 -77 -173 -111
-144 -110 -348 -311 -442 -435 -149 -196 -260 -398 -342 -622 -23 -62 -43
-120 -45 -130 -1 -9 -6 -24 -9 -32 -6 -15 -42 -180 -51 -235 -6 -39 -14 -95
-22 -170 -8 -70 -8 -376 0 -420 3 -16 8 -57 11 -90 4 -33 9 -63 11 -66 2 -4 6
-27 9 -50 9 -69 62 -261 101 -367 60 -162 193 -421 228 -444 6 -4 8 -8 3 -8
-6 0 63 -101 113 -164 72 -92 290 -320 290 -304 0 4 17 -10 37 -31 44 -43 159
-131 172 -131 5 0 11 -3 13 -7 5 -12 91 -66 105 -66 7 0 10 -3 8 -7 -4 -7 294
-160 312 -160 6 0 31 -9 55 -20 56 -24 269 -86 328 -95 25 -4 47 -8 50 -10 5
-3 45 -10 120 -21 150 -21 489 -21 595 0 19 3 82 14 135 22 44 7 124 25 150
34 14 5 59 18 100 31 233 68 481 196 695 358 111 84 316 280 385 368 93 120
128 171 123 177 -4 3 -2 6 4 6 14 0 107 159 168 285 81 167 166 432 180 560 1
11 5 31 9 45 7 25 8 38 22 175 12 126 7 392 -11 495 -2 14 -6 42 -9 63 -23
152 -117 477 -138 477 -5 0 -6 4 -3 10 12 20 -183 386 -251 469 -7 9 -34 45
-61 81 -107 145 -353 372 -538 497 -234 156 -562 293 -795 329 -19 3 -38 8
-41 10 -4 2 -26 6 -50 9 -24 3 -55 7 -69 10 -60 12 -393 27 -403 19z m390
-187 c11 -3 43 -8 70 -12 83 -12 282 -64 382 -102 161 -60 422 -199 517 -276
10 -8 47 -38 80 -66 34 -27 65 -48 68 -45 3 2 5 2 3 -1 -2 -2 44 -53 102 -112
58 -60 134 -145 168 -190 33 -45 64 -79 67 -76 3 4 6 -3 6 -15 0 -11 4 -23 9
-26 18 -12 191 -327 191 -349 0 -3 10 -27 22 -54 11 -26 22 -52 22 -58 1 -5
12 -43 25 -84 12 -41 24 -81 26 -90 2 -9 10 -45 19 -81 19 -81 24 -111 32
-180 3 -30 8 -71 10 -90 6 -42 5 -307 -1 -370 -11 -127 -52 -326 -92 -455 -44
-139 -136 -339 -209 -452 -19 -30 -35 -59 -37 -65 -1 -6 -17 -27 -34 -47 -18
-20 -33 -39 -33 -44 0 -4 -15 -24 -32 -43 -18 -20 -32 -38 -30 -40 6 -10 -270
-275 -343 -329 -44 -33 -84 -64 -90 -71 -5 -6 -13 -12 -18 -12 -4 -1 -33 -18
-65 -38 -31 -21 -105 -61 -163 -90 -309 -155 -592 -222 -944 -222 -104 0 -219
4 -255 9 -36 6 -81 12 -100 14 -19 3 -55 10 -80 16 -25 6 -54 12 -65 13 -11 2
-27 6 -35 9 -8 3 -49 15 -90 27 -41 11 -84 25 -95 30 -11 5 -56 24 -100 41
-109 44 -183 84 -360 192 -10 7 -24 17 -31 22 -6 6 -24 19 -40 30 -15 11 -54
41 -85 67 -31 26 -60 45 -63 42 -3 -2 -4 -2 -3 1 5 7 -187 200 -196 197 -5 -1
-6 2 -3 7 4 5 -2 16 -12 23 -11 7 -20 16 -21 20 0 5 -21 34 -46 65 -53 69
-139 203 -187 293 -36 68 -118 254 -118 269 0 5 -7 26 -17 47 -9 22 -17 46
-18 54 -2 8 -10 42 -19 75 -15 53 -25 100 -52 250 -10 54 -11 487 -1 550 4 28
10 68 13 90 8 59 53 236 79 312 13 37 22 71 19 75 -3 4 -1 8 3 8 5 0 15 17 22
38 20 56 114 241 162 318 47 76 138 202 178 249 50 57 236 241 275 270 21 17
44 35 50 40 25 23 125 91 206 139 146 89 319 165 463 207 40 11 87 25 104 30
18 5 94 20 170 33 122 21 165 23 368 21 127 -1 240 -5 252 -8z"/>
<path d="M2467 4484 c-1 -1 -38 -5 -82 -8 -44 -4 -114 -14 -155 -21 -41 -8
-90 -17 -107 -20 -43 -7 -256 -77 -319 -105 -128 -56 -324 -167 -324 -182 0
-4 -5 -8 -11 -8 -12 0 -115 -76 -163 -119 -89 -81 -214 -216 -209 -224 3 -6 2
-7 -4 -4 -11 7 -82 -84 -156 -198 -71 -112 -152 -277 -194 -400 -27 -81 -70
-245 -78 -301 -3 -22 -8 -44 -10 -51 -7 -21 -18 -194 -18 -288 0 -146 13 -267
44 -405 28 -127 53 -209 91 -300 6 -14 12 -30 14 -37 1 -6 27 -60 57 -120 54
-109 170 -288 228 -353 17 -19 45 -52 62 -72 17 -21 37 -38 44 -38 7 0 12 -5
10 -12 -1 -6 9 -17 23 -25 14 -7 21 -13 15 -13 -12 0 41 -49 135 -125 117 -95
281 -193 450 -268 139 -62 401 -129 565 -143 215 -20 475 1 665 52 30 9 60 17
65 18 48 12 125 41 125 48 0 4 6 5 14 2 7 -3 20 2 29 10 8 8 17 13 20 10 6 -6
181 76 185 88 2 4 9 8 16 8 17 0 214 130 253 167 18 17 34 29 36 27 5 -5 207
194 258 256 58 70 159 214 159 228 0 6 4 12 9 14 17 6 122 224 164 343 40 111
47 137 42 145 -3 5 -1 11 4 14 5 3 12 20 15 38 3 18 8 44 11 58 103 512 -1
1037 -290 1465 -41 61 -91 128 -111 150 -19 22 -43 50 -51 62 -8 13 -19 20
-24 17 -5 -3 -8 -1 -7 4 6 20 -252 251 -274 245 -4 -2 -8 1 -8 6 0 14 -143
103 -257 160 -134 67 -323 136 -433 157 -14 3 -32 7 -40 9 -8 3 -33 7 -55 10
-22 3 -50 8 -62 10 -49 11 -357 27 -366 19z m353 -190 c136 -21 150 -25 240
-51 47 -14 91 -26 98 -26 6 0 12 -4 12 -9 0 -5 6 -8 13 -7 22 4 211 -87 305
-147 28 -19 52 -31 52 -27 0 4 6 0 13 -8 6 -8 46 -40 87 -71 256 -194 472
-488 579 -791 112 -318 133 -623 65 -964 -2 -13 -6 -35 -9 -50 -3 -16 -24 -80
-46 -143 -22 -63 -41 -122 -42 -130 -1 -8 -5 -17 -8 -20 -3 -3 -28 -48 -55
-100 -49 -93 -134 -229 -164 -261 -8 -9 -23 -27 -33 -40 -9 -13 -45 -53 -80
-88 -34 -36 -56 -61 -48 -56 10 5 12 4 7 -4 -4 -6 -11 -9 -16 -6 -5 3 -15 -3
-22 -13 -17 -23 -145 -127 -223 -179 -90 -61 -230 -134 -325 -171 -47 -17 -98
-37 -115 -43 -16 -7 -37 -13 -45 -14 -8 -2 -46 -10 -85 -20 -38 -9 -86 -19
-105 -22 -19 -3 -55 -9 -80 -13 -25 -5 -137 -8 -250 -6 -231 3 -332 19 -519
82 -132 44 -377 161 -419 202 -8 6 -23 17 -34 23 -11 6 -31 20 -45 32 -13 12
-25 21 -26 19 -6 -9 -208 186 -267 257 -19 23 -40 48 -45 54 -6 7 -26 35 -45
62 -18 28 -36 52 -39 55 -17 15 -132 239 -164 320 -30 75 -76 229 -83 280 -3
19 -7 42 -9 50 -5 17 -12 62 -20 140 -7 54 -7 260 -1 330 12 140 55 327 102
448 18 47 31 88 29 93 -3 4 -1 9 4 11 5 1 23 32 41 68 71 142 177 299 269 394
27 30 47 57 43 61 -4 3 0 5 8 3 8 -2 14 3 12 10 -1 8 2 11 8 7 6 -3 14 3 18
15 4 12 11 21 16 20 4 -1 27 16 50 37 61 53 97 82 129 101 15 9 27 20 27 24 0
4 4 8 10 8 5 0 33 15 62 34 71 45 234 126 253 126 9 0 14 4 11 8 -3 5 0 9 7 9
7 0 55 14 107 31 102 32 224 60 305 69 28 3 52 7 54 9 10 9 358 0 431 -12z"/>
<path d="M2435 4128 c-38 -4 -88 -9 -110 -12 -108 -12 -284 -66 -421 -131
-105 -49 -240 -129 -271 -161 -8 -8 -18 -14 -23 -14 -10 0 -232 -218 -270
-265 -50 -62 -134 -193 -172 -270 -51 -101 -110 -253 -103 -265 3 -4 1 -10 -5
-12 -5 -1 -12 -19 -15 -38 -3 -19 -12 -64 -20 -100 -69 -302 -15 -701 136
-1003 52 -103 125 -217 139 -217 6 0 9 -4 6 -9 -8 -12 42 -70 158 -186 90 -89
231 -204 242 -197 2 1 12 -6 22 -16 38 -38 315 -168 333 -156 5 3 9 1 9 -4 0
-10 90 -36 205 -58 252 -47 523 -33 760 42 76 24 208 76 225 88 8 7 33 20 55
30 55 25 205 125 205 137 0 6 4 8 9 5 16 -10 221 195 300 300 141 188 263 465
287 651 2 20 6 38 8 42 16 26 24 301 12 426 -9 92 -60 300 -97 394 -54 137
-156 313 -241 418 -29 36 -205 212 -240 240 -14 12 -39 30 -55 40 -15 10 -36
25 -46 34 -17 15 -184 113 -197 115 -3 0 -30 12 -60 26 -50 23 -162 64 -200
74 -67 17 -105 25 -138 30 -20 3 -39 7 -42 9 -24 15 -284 23 -385 13z m272
-172 c119 -12 278 -51 372 -92 29 -13 57 -21 62 -18 5 3 9 2 9 -3 0 -4 26 -21
58 -37 31 -17 82 -47 113 -68 31 -20 58 -36 60 -35 2 1 3 0 2 -2 -4 -7 92 -76
102 -73 5 2 7 1 4 -3 -4 -3 20 -31 52 -62 121 -115 247 -298 308 -448 40 -99
44 -109 46 -121 2 -6 10 -36 18 -65 57 -200 65 -436 22 -640 -8 -40 -13 -75
-10 -77 3 -3 1 -10 -4 -16 -4 -6 -18 -42 -30 -81 -13 -38 -40 -107 -61 -152
-21 -45 -35 -85 -32 -89 4 -4 1 -4 -5 0 -7 4 -13 3 -13 -3 0 -10 -90 -147
-125 -191 -62 -78 -224 -225 -312 -283 -141 -94 -347 -185 -461 -203 -20 -3
-40 -8 -43 -9 -3 -2 -28 -7 -55 -10 -27 -3 -65 -8 -84 -11 -47 -7 -216 -6
-287 1 -126 13 -272 49 -365 89 -21 9 -38 14 -38 12 0 -2 -42 18 -92 46 -401
218 -674 591 -742 1013 -22 140 -23 391 -1 465 2 8 7 30 10 49 11 67 48 186
82 268 31 72 134 258 152 273 3 3 24 28 45 57 94 125 294 290 448 369 32 16
58 33 58 37 0 5 4 6 8 3 5 -3 40 8 79 23 107 44 246 77 368 87 38 3 71 6 72 7
3 4 150 -1 210 -7z"/>
<path d="M2409 3774 c-139 -22 -154 -25 -239 -54 -63 -21 -204 -86 -245 -112
-102 -67 -201 -147 -197 -160 1 -4 -4 -7 -10 -6 -7 2 -12 -3 -10 -10 1 -8 -1
-11 -6 -8 -10 6 -98 -93 -95 -106 2 -4 -2 -8 -7 -8 -6 0 -35 -37 -64 -82 -58
-90 -110 -188 -100 -188 4 0 2 -6 -4 -12 -25 -33 -76 -216 -88 -320 -14 -123
-5 -309 20 -413 2 -5 6 -27 11 -47 4 -21 11 -38 17 -38 5 0 7 -4 4 -9 -20 -32
138 -335 213 -412 9 -8 31 -34 50 -57 18 -23 38 -39 44 -35 5 3 7 2 4 -4 -3
-5 11 -24 31 -41 86 -73 97 -82 104 -82 4 0 13 -6 20 -13 38 -37 162 -102 275
-146 54 -21 197 -59 223 -59 8 0 42 -4 75 -9 95 -13 211 -9 355 14 59 9 205
54 208 64 2 5 7 7 12 4 4 -3 46 14 92 38 143 74 296 184 280 202 -4 5 -2 5 4
2 11 -6 131 119 148 154 5 10 13 19 18 19 4 0 8 5 8 10 0 6 9 20 20 32 10 12
17 25 14 30 -3 4 -1 8 4 8 9 0 78 130 106 202 19 48 56 179 61 215 2 15 7 51
10 78 10 66 10 215 1 289 -30 240 -114 439 -263 623 -58 73 -150 163 -157 155
-3 -3 -6 0 -6 6 0 19 -198 155 -226 155 -8 0 -14 3 -14 7 0 10 -71 41 -81 35
-5 -4 -9 -2 -9 3 0 12 -146 58 -244 78 -99 19 -269 23 -367 8z m356 -179 c161
-32 303 -94 425 -186 41 -31 85 -66 97 -78 12 -12 27 -21 33 -21 5 0 9 -6 7
-12 -1 -7 5 -12 13 -10 8 2 12 1 8 -3 -4 -4 15 -34 42 -66 27 -33 55 -70 61
-82 7 -12 15 -24 18 -27 17 -14 72 -135 96 -210 15 -47 30 -92 32 -100 25 -73
24 -376 0 -478 -19 -79 -40 -142 -63 -185 -9 -15 -12 -32 -9 -37 3 -6 2 -10
-2 -10 -5 0 -25 -28 -45 -63 -132 -229 -366 -409 -628 -482 -119 -33 -332 -45
-443 -25 -40 7 -79 14 -87 15 -8 1 -22 5 -30 8 -8 3 -44 15 -80 27 -36 12 -70
26 -77 32 -7 5 -18 6 -24 2 -8 -4 -9 -3 -5 4 4 7 2 12 -5 12 -17 0 -135 75
-190 121 -25 21 -49 35 -53 31 -4 -4 -6 -1 -4 7 2 8 -8 20 -22 28 -14 7 -21
13 -16 13 4 0 -6 15 -24 33 -80 80 -177 245 -214 362 -10 33 -21 67 -24 75 -7
21 -7 20 -16 73 -4 27 -9 59 -12 70 -7 35 -7 197 0 252 15 110 45 222 78 288
10 21 16 42 13 47 -3 6 -3 10 2 10 4 0 27 33 51 73 23 39 57 90 75 111 46 57
157 164 190 184 15 9 27 20 27 24 0 4 4 8 9 8 6 0 29 13 53 29 79 53 220 109
343 135 81 17 313 18 400 1z"/>
<path d="M2390 3440 c-334 -69 -592 -309 -688 -640 -37 -128 -40 -320 -7 -449
84 -325 308 -559 631 -657 80 -25 104 -27 244 -27 140 0 164 2 245 27 152 46
276 118 381 221 57 57 144 164 144 179 0 3 11 23 24 44 33 53 83 203 97 292 7
44 9 119 6 180 -26 479 -419 849 -901 848 -50 0 -129 -8 -176 -18z m258 -750
c130 -79 74 -280 -78 -280 -85 0 -150 65 -150 150 0 85 65 150 150 150 27 0
58 -8 78 -20z"/>
</g>
</svg>
