<svg xmlns="http://www.w3.org/2000/svg" width="640" height="640" viewBox="0 0 480 480.001"><path fill="#87ced9" d="m376 424h-208l-72 48v-48h-56c-17.671875 0-32-14.328125-32-32v-256c0-17.671875 14.328125-32 32-32h336c17.671875 0 32 14.328125 32 32v256c0 17.671875-14.328125 32-32 32zm0 0"/><path fill="#4398d1" d="m368 328h-224v-320h176l48 48zm0 0"/><path fill="#87ced9" d="m320 8v48h48zm0 0"/><path fill="#3181bd" d="m296 176h48v16h-48zm0 0"/><path fill="#3181bd" d="m296 208h48v16h-48zm0 0"/><path fill="#3181bd" d="m296 240h48v16h-48zm0 0"/><path fill="#3181bd" d="m296 272h48v16h-48zm0 0"/><path fill="#3181bd" d="m316 128h6.898438c3.054687 0 5.109374 1.601562 5.109374 4 0 2.210938-1.789062 4-4 4h-20.007812v16h8v8h16v-8.40625c9.3125-1.902344 16-10.089844 16-19.59375-.09375-5.46875-2.382812-10.671875-6.355469-14.433594-3.96875-3.761718-9.289062-5.769531-14.757812-5.566406h-6.886719c-2.207031 0-4-1.789062-4-4s1.792969-4 4-4h20v-16h-8v-8h-16v8.40625c-10.050781 2.0625-16.910156 11.394531-15.878906 21.605469 1.03125 10.207031 9.621094 17.976562 19.878906 17.988281zm0 0"/><path fill="#e3584b" d="m72 56h176c13.253906 0 24 10.746094 24 24v272c0 13.253906-10.746094 24-24 24h-176c-13.253906 0-24-10.746094-24-24v-272c0-13.253906 10.746094-24 24-24zm0 0"/><path fill="#4398d1" d="m208 248h32v96h-32zm0 0"/><g fill="#ffc24f"><path d="m80 312h32v32h-32zm0 0"/><path d="m144 312h32v32h-32zm0 0"/><path d="m80 248h32v32h-32zm0 0"/><path d="m144 248h32v32h-32zm0 0"/><path d="m80 184h32v32h-32zm0 0"/><path d="m144 184h32v32h-32zm0 0"/><path d="m208 184h32v32h-32zm0 0"/></g><path fill="#87ced9" d="m80 88h160v64h-160zm0 0"/><path fill="#3181bd" d="m200 112h16v16h-16zm0 0"/><path fill="#3181bd" d="m168 112h16v16h-16zm0 0"/><path fill="#3181bd" d="m136 112h16v16h-16zm0 0"/><path fill="#71c4d1" d="m272 352c0 13.253906-10.746094 24-24 24h-176c-2.335938-.035156-4.652344-.410156-6.878906-1.121094 3.003906 10.136719 12.308594 17.097656 22.878906 17.121094h164.457031c19.628907 0 35.542969-15.914062 35.542969-35.542969v-28.457031h-16zm0 0"/><path fill="#4398d1" d="m472 392h-160l-16-16 16-16h160zm0 0"/><path fill="#0a4a7a" d="m432 360h16v32h-16zm0 0"/><path fill="#71c4d1" d="m328 408h75.5625c2.875-4.84375 4.410156-10.367188 4.4375-16h-96zm0 0"/><path fill="#71c4d1" d="m272 328v16h112v-238.871094c-2.605469-.714844-5.296875-1.09375-8-1.128906h-8v224zm0 0"/><path fill="#71c4d1" d="m80 88h160v16h-160zm0 0"/><path fill="#3e8dc2" d="m272 88c8.835938 0 16 7.164062 16 16v224h-16zm0 0"/><path d="m40 432h48v40c0 2.949219 1.625 5.664062 4.226562 7.054688 2.601563 1.390624 5.757813 1.238281 8.214844-.398438l69.960938-46.65625h205.597656c11.480469 0 22.40625-4.933594 30-13.542969l-12-10.585937c-4.558594 5.164062-11.113281 8.125-18 8.128906h-208c-1.578125.003906-3.125.46875-4.4375 1.34375l-59.5625 39.703125v-33.046875c0-4.417969-3.582031-8-8-8h-56c-13.253906 0-24-10.746094-24-24v-256c0-13.253906 10.746094-24 24-24v240c0 17.671875 14.328125 32 32 32h176c17.671875 0 32-14.328125 32-32v-16h88c4.417969 0 8-3.582031 8-8v-216c13.253906 0 24 10.746094 24 24v200h16v-200c-.027344-22.082031-17.917969-39.972656-40-40v-40c0-.175781-.085938-.328125-.101562-.503906-.042969-.699219-.179688-1.394532-.410157-2.054688-.085937-.257812-.152343-.503906-.265625-.753906-.386718-.871094-.929687-1.664062-1.597656-2.34375l-48-48c-.683594-.667969-1.480469-1.210938-2.351562-1.601562-.242188-.101563-.472657-.167969-.710938-.253907-.6875-.238281-1.40625-.378906-2.128906-.4179685-.128906.0078125-.273438-.0703125-.433594-.0703125h-176c-4.417969 0-8 3.582031-8 8v40h-64c-17.671875 0-32 14.328125-32 32v16c-22.078125.027344-39.9726562 17.917969-40 40v256c.0273438 22.082031 17.921875 39.972656 40 40zm288-404.6875 20.6875 20.6875h-20.6875zm-176-11.3125h160v40c0 4.417969 3.582031 8 8 8h40v256h-80v-240c0-17.671875-14.328125-32-32-32h-96zm-96 64c0-8.835938 7.164062-16 16-16h176c8.835938 0 16 7.164062 16 16v272c0 8.835938-7.164062 16-16 16h-176c-8.835938 0-16-7.164062-16-16zm0 0"/><path d="m296 176h48v16h-48zm0 0"/><path d="m296 208h48v16h-48zm0 0"/><path d="m296 240h48v16h-48zm0 0"/><path d="m296 272h48v16h-48zm0 0"/><path d="m316 128h6.898438c3.054687 0 5.109374 1.601562 5.109374 4 0 2.210938-1.789062 4-4 4h-20.007812v16h8v8h16v-8.40625c9.3125-1.902344 16-10.089844 16-19.59375-.09375-5.46875-2.382812-10.671875-6.355469-14.433594-3.96875-3.761718-9.289062-5.769531-14.757812-5.566406h-6.886719c-2.207031 0-4-1.789062-4-4s1.792969-4 4-4h20v-16h-8v-8h-16v8.40625c-10.050781 2.0625-16.910156 11.394531-15.878906 21.605469 1.03125 10.207031 9.621094 17.976562 19.878906 17.988281zm0 0"/><path d="m80 352h32c4.417969 0 8-3.582031 8-8v-32c0-4.417969-3.582031-8-8-8h-32c-4.417969 0-8 3.582031-8 8v32c0 4.417969 3.582031 8 8 8zm8-32h16v16h-16zm0 0"/><path d="m176 304h-32c-4.417969 0-8 3.582031-8 8v32c0 4.417969 3.582031 8 8 8h32c4.417969 0 8-3.582031 8-8v-32c0-4.417969-3.582031-8-8-8zm-8 32h-16v-16h16zm0 0"/><path d="m240 240h-32c-4.417969 0-8 3.582031-8 8v96c0 4.417969 3.582031 8 8 8h32c4.417969 0 8-3.582031 8-8v-96c0-4.417969-3.582031-8-8-8zm-8 96h-16v-80h16zm0 0"/><path d="m80 288h32c4.417969 0 8-3.582031 8-8v-32c0-4.417969-3.582031-8-8-8h-32c-4.417969 0-8 3.582031-8 8v32c0 4.417969 3.582031 8 8 8zm8-32h16v16h-16zm0 0"/><path d="m176 240h-32c-4.417969 0-8 3.582031-8 8v32c0 4.417969 3.582031 8 8 8h32c4.417969 0 8-3.582031 8-8v-32c0-4.417969-3.582031-8-8-8zm-8 32h-16v-16h16zm0 0"/><path d="m80 224h32c4.417969 0 8-3.582031 8-8v-32c0-4.417969-3.582031-8-8-8h-32c-4.417969 0-8 3.582031-8 8v32c0 4.417969 3.582031 8 8 8zm8-32h16v16h-16zm0 0"/><path d="m176 176h-32c-4.417969 0-8 3.582031-8 8v32c0 4.417969 3.582031 8 8 8h32c4.417969 0 8-3.582031 8-8v-32c0-4.417969-3.582031-8-8-8zm-8 32h-16v-16h16zm0 0"/><path d="m240 176h-32c-4.417969 0-8 3.582031-8 8v32c0 4.417969 3.582031 8 8 8h32c4.417969 0 8-3.582031 8-8v-32c0-4.417969-3.582031-8-8-8zm-8 32h-16v-16h16zm0 0"/><path d="m80 160h160c4.417969 0 8-3.582031 8-8v-64c0-4.417969-3.582031-8-8-8h-160c-4.417969 0-8 3.582031-8 8v64c0 4.417969 3.582031 8 8 8zm8-64h144v48h-144zm0 0"/><path d="m200 112h16v16h-16zm0 0"/><path d="m168 112h16v16h-16zm0 0"/><path d="m136 112h16v16h-16zm0 0"/><path d="m472 352h-160c-2.121094 0-4.15625.84375-5.65625 2.34375l-16 16c-3.121094 3.125-3.121094 8.1875 0 11.3125l16 16c1.5 1.5 3.535156 2.34375 5.65625 2.34375h160c4.417969 0 8-3.582031 8-8v-32c0-4.417969-3.582031-8-8-8zm-40 32h-116.6875l-8-8 8-8h116.6875zm32 0h-16v-16h16zm0 0"/></svg>