<svg xmlns="http://www.w3.org/2000/svg" width="640" height="640" viewBox="0 0 480 480"><path fill="#c6c5ca" d="m344 440v-40l-31.679688-24-40.480468 24-32.480469-24-30.960937 24-32.476563-24-31.441406 24-31.441407-24-41.039062 23.601562-.558594.398438-31.921875-24-31.519531 24v40c.023438 17.664062 14.335938 31.976562 32 32h336c-17.671875 0-32-14.328125-32-32zm0 0"/><path fill="#e0e0e2" d="m424 12.289062c4.714844-2.730468 10.050781-4.207031 15.496094-4.289062h-335.496094c-17.671875 0-32 14.328125-32 32v359.601562l41.039062-23.601562 31.441407 24 31.441406-24 32.476563 24 30.960937-24 32.480469 24 40.480468-24 31.679688 24v40c0 17.671875 14.328125 32 32 32s32-14.328125 32-32v-40l-.238281-259.679688.238281-100.320312c-.03125-11.441406 6.074219-22.019531 16-27.710938zm-304 27.710938c-8.835938 0-16 7.164062-16 16 0-8.835938 7.164062-16 16-16zm192 112c0 4.417969-3.582031 8-8 8h-96c-4.417969 0-8 3.582031-8 8v16c0 4.417969 3.582031 8 8 8h72c17.671875 0 32 14.328125 32 32v32c0 17.671875-14.328125 32-32 32h-24v32h-32v-32h-48c-4.417969 0-8-3.582031-8-8v-16c0-4.417969 3.582031-8 8-8h96c4.417969 0 8-3.582031 8-8v-16c0-4.417969-3.582031-8-8-8h-72c-17.671875 0-32-14.328125-32-32v-32c0-17.671875 14.328125-32 32-32h24v-32h32v32h48c4.417969 0 8 3.582031 8 8zm0 0"/><path fill="#acabb1" d="m440 8c-.167969 0-.335938 0-.503906 0h.503906c-17.65625.042969-31.957031 14.34375-32 32v48l32 16 32-16v-48c0-17.671875-14.328125-32-32-32zm0 0"/><path fill="#e0e0e2" d="m424 12.320312c4.859375-2.824218 10.378906-4.316406 16-4.320312h-.503906c-17.476563.273438-31.5 14.523438-31.496094 32-.019531-11.429688 6.085938-21.992188 16-27.679688zm0 0"/><path fill="#71d9b3" d="m304 128h-48v-32h-32v32h-24c-17.671875 0-32 14.328125-32 32v32c0 17.671875 14.328125 32 32 32h72c4.417969 0 8 3.582031 8 8v16c0 4.417969-3.582031 8-8 8h-96c-4.417969 0-8 3.582031-8 8v16c0 4.417969 3.582031 8 8 8h48v32h32v-32h24c17.671875 0 32-14.328125 32-32v-32c0-17.671875-14.328125-32-32-32h-72c-4.417969 0-8-3.582031-8-8v-16c0-4.417969 3.582031-8 8-8h96c4.417969 0 8-3.582031 8-8v-16c0-4.417969-3.582031-8-8-8zm0 0"/><g fill="#231f20"><path d="m440 0c-.160156 0-.3125 0-.472656 0h-335.527344c-22.082031.0273438-39.972656 17.917969-40 40v344.398438l-19.671875-14.796876c-2.855469-2.160156-6.792969-2.160156-9.648437 0l-31.519532 24c-2 1.519532-3.1679685 3.886719-3.160156 6.398438v40c.0273438 22.082031 17.917969 39.972656 40 40h336c22.074219-.039062 39.960938-17.925781 40-40l-.144531-339.160156 20.570312 10.289062c2.25 1.125 4.898438 1.125 7.148438 0l32-16c2.703125-1.351562 4.414062-4.109375 4.425781-7.128906v-48c-.027344-22.082031-17.917969-39.9726562-40-40zm-400 464c-13.253906 0-24-10.746094-24-24v-36l23.550781-17.929688 27.082031 20.328126c2.179688 1.441406 4.902344 1.792968 7.375.953124.695313-.179687 1.359376-.445312 1.984376-.800781l36.425781-20.949219 27.199219 20.796876c2.863281 2.1875 6.835937 2.1875 9.703124 0l26.679688-20.390626 27.640625 20.433594c2.882813 2.125 6.828125 2.074219 9.65625-.121094l26.183594-20.289062 27.617187 20.410156c2.578125 1.894532 6.042969 2.066406 8.796875.4375l35.882813-21.277344 24.222656 18.398438v36c.019531 2.492188.269531 4.976562.753906 7.425781.140625.796875.375 1.476563.558594 2.222657.394531 1.628906.894531 3.230468 1.488281 4.800781.3125.796875.648438 1.550781 1.007813 2.320312.683594 1.457031 1.449218 2.871094 2.304687 4.238281.414063.671876.796875 1.351563 1.269531 1.992188.226563.328125.394532.6875.632813 1zm360-24c0 13.253906-10.746094 24-24 24s-24-10.746094-24-24v-40c0-2.519531-1.183594-4.890625-3.199219-6.398438l-31.679687-24c-.675782-.503906-1.421875-.898437-2.21875-1.167968-.246094-.066406-.496094-.117188-.75-.152344-.535156-.152344-1.085938-.246094-1.640625-.28125-.0625 0-.128907 0-.191407 0-.386718.023438-.773437.074219-1.152343.152344-.28125.019531-.5625.058594-.839844.113281-.734375.179687-1.4375.46875-2.089844.855469l-35.910156 21.277344-28.214844-20.796876c-2.882812-2.125-6.820312-2.074218-9.648437.117188l-26.183594 20.289062-27.601562-20.40625c-2.863282-2.109374-6.773438-2.078124-9.601563.078126l-26.597656 20.257812-26.59375-20.296875c-2.550781-1.9375-6.015625-2.164063-8.796875-.578125l-29.089844 16.707031v-345.769531c0-13.253906 10.746094-24 24-24h304v.046875c-1.148438 1.558594-2.1875 3.191406-3.105469 4.898437-.246093.453126-.453125.925782-.6875 1.398438-.648437 1.300781-1.222656 2.636719-1.71875 4-.214843.59375-.425781 1.175781-.609375 1.777344-.417968 1.367187-.765625 2.761718-1.039062 4.167968-.113282.566407-.253906 1.117188-.34375 1.695313-.320313 1.988281-.484375 4-.496094 6.015625zm64-356.976562-24 12-24-12v-43.023438c.035156-13.238281 10.761719-23.964844 24-24h.105469c13.210937.058594 23.894531 10.785156 23.894531 24zm0 0"/><path d="m304 120h-40v-24c0-4.417969-3.582031-8-8-8h-32c-4.417969 0-8 3.582031-8 8v24h-16c-22.082031.027344-39.972656 17.917969-40 40v32c.027344 22.082031 17.917969 39.972656 40 40h72v16h-96c-8.835938 0-16 7.164062-16 16v16c0 8.835938 7.164062 16 16 16h40v24c0 4.417969 3.582031 8 8 8h32c4.417969 0 8-3.582031 8-8v-24h16c22.082031-.027344 39.972656-17.917969 40-40v-32c-.027344-22.082031-17.917969-39.972656-40-40h-72v-16h96c8.835938 0 16-7.164062 16-16v-16c0-8.835938-7.164062-16-16-16zm0 32h-96c-8.835938 0-16 7.164062-16 16v16c0 8.835938 7.164062 16 16 16h72c13.253906 0 24 10.746094 24 24v32c0 13.253906-10.746094 24-24 24h-24c-4.417969 0-8 3.582031-8 8v24h-16v-24c0-4.417969-3.582031-8-8-8h-48v-16h96c8.835938 0 16-7.164062 16-16v-16c0-8.835938-7.164062-16-16-16h-72c-13.253906 0-24-10.746094-24-24v-32c0-13.253906 10.746094-24 24-24h24c4.417969 0 8-3.582031 8-8v-24h16v24c0 4.417969 3.582031 8 8 8h48zm0 0"/><path d="m176 40c0-4.417969-3.582031-8-8-8h-48c-13.253906 0-24 10.746094-24 24v48c0 4.417969 3.582031 8 8 8s8-3.582031 8-8v-48c0-4.417969 3.582031-8 8-8h48c4.417969 0 8-3.582031 8-8zm0 0"/></g></svg>